<svg xmlns="http://www.w3.org/2000/svg" viewBox="0 0 1200 130" width="1200" height="130" preserveAspectRatio="xMidYMin slice">
  <defs>
    <linearGradient id="ib" x1="0" y1="0" x2="0" y2="1">
      <stop offset="0" stop-color="#F2FCFF" stop-opacity="0.95"/>
      <stop offset="0.22" stop-color="#DCF5FF" stop-opacity="0.8"/>
      <stop offset="0.55" stop-color="#A6E3FF" stop-opacity="0.5"/>
      <stop offset="0.82" stop-color="#69D2FF" stop-opacity="0.22"/>
      <stop offset="1" stop-color="#69D2FF" stop-opacity="0"/>
    </linearGradient>
    <linearGradient id="fc" x1="0" y1="0" x2="0" y2="1">
      <stop offset="0" stop-color="#FFFFFF" stop-opacity="0.62"/>
      <stop offset="1" stop-color="#DCF5FF" stop-opacity="0"/>
    </linearGradient>
  </defs>

  <!-- frosted attachment ledge -->
  <rect x="0" y="0" width="1200" height="6" fill="url(#fc)"/>

  <!-- frost buildup around attachment points -->
  <g fill="#FFFFFF">
    <circle cx="67" cy="2" r="3" opacity="0.20"/>
    <circle cx="82" cy="2" r="3.4" opacity="0.22"/>
    <circle cx="112" cy="2" r="3.6" opacity="0.22"/>
    <circle cx="146" cy="2" r="3" opacity="0.18"/>
    <circle cx="180" cy="2" r="3.4" opacity="0.22"/>
    <circle cx="199" cy="2" r="2.6" opacity="0.18"/>
    <circle cx="238" cy="2" r="3.2" opacity="0.20"/>
    <circle cx="280" cy="2" r="3.6" opacity="0.22"/>
    <circle cx="301" cy="2" r="2.6" opacity="0.16"/>
    <circle cx="447" cy="2" r="2.8" opacity="0.18"/>
    <circle cx="462" cy="2" r="3.4" opacity="0.22"/>
    <circle cx="492" cy="2" r="3" opacity="0.20"/>
    <circle cx="524" cy="2" r="3.6" opacity="0.22"/>
    <circle cx="558" cy="2" r="3.2" opacity="0.20"/>
    <circle cx="596" cy="2" r="3.4" opacity="0.22"/>
    <circle cx="636" cy="2" r="3" opacity="0.18"/>
    <circle cx="676" cy="2" r="3.6" opacity="0.22"/>
    <circle cx="827" cy="2" r="3" opacity="0.20"/>
    <circle cx="842" cy="2" r="3.6" opacity="0.22"/>
    <circle cx="872" cy="2" r="3.2" opacity="0.20"/>
    <circle cx="904" cy="2" r="3.2" opacity="0.20"/>
    <circle cx="938" cy="2" r="3.8" opacity="0.22"/>
    <circle cx="998" cy="2" r="3.2" opacity="0.20"/>
    <circle cx="1038" cy="2" r="3.4" opacity="0.20"/>
    <circle cx="1080" cy="2" r="3" opacity="0.18"/>
    <circle cx="100" cy="3" r="1.4" opacity="0.14"/>
    <circle cx="160" cy="3" r="1.2" opacity="0.12"/>
    <circle cx="520" cy="3" r="1.4" opacity="0.14"/>
    <circle cx="900" cy="3" r="1.4" opacity="0.14"/>
    <circle cx="1000" cy="3" r="1.2" opacity="0.12"/>
  </g>

  <!-- icicles: irregular lengths, varied thickness, natural clustering -->
  <g fill="url(#ib)" stroke="#EAF9FF" stroke-opacity="0.22" stroke-width="0.4">
    <path d="M64 0 C64 18 66 31 67 42 C68 31 71 18 71 0 Z"/>
    <path d="M78 0 C78 30 81 53 82 72 C83 53 86 30 86 0 Z"/>
    <path d="M92 0 C92 12 94 21 95 28 C96 21 97 12 97 0 Z"/>
    <path d="M108 0 C108 40 111 71 112 96 C113 71 116 40 116 0 Z"/>
    <path d="M124 0 C124 17 126 30 127 40 C128 30 129 17 129 0 Z"/>
    <path d="M142 0 C142 25 145 44 146 60 C147 44 150 25 150 0 Z"/>
    <path d="M158 0 C158 11 160 19 161 26 C162 19 163 11 163 0 Z"/>
    <path d="M176 0 C176 35 179 62 180 84 C181 62 184 35 184 0 Z"/>
    <path d="M196 0 C196 19 198 34 199 46 C200 34 202 19 202 0 Z"/>
    <path d="M214 0 C214 14 217 25 218 34 C219 25 221 14 221 0 Z"/>
    <path d="M234 0 C234 29 237 52 238 70 C239 52 242 29 242 0 Z"/>
    <path d="M256 0 C256 16 258 28 259 38 C260 28 262 16 262 0 Z"/>
    <path d="M276 0 C276 38 279 67 280 90 C281 67 285 38 285 0 Z"/>
    <path d="M298 0 C298 18 300 31 301 42 C302 31 304 18 304 0 Z"/>
    <path d="M318 0 C318 13 321 22 322 30 C323 22 325 13 325 0 Z"/>

    <path d="M444 0 C444 16 446 28 447 38 C448 28 451 16 451 0 Z"/>
    <path d="M458 0 C458 34 461 59 462 80 C463 59 466 34 466 0 Z"/>
    <path d="M472 0 C472 11 474 19 475 26 C476 19 477 11 477 0 Z"/>
    <path d="M488 0 C488 24 491 43 492 58 C493 43 496 24 496 0 Z"/>
    <path d="M504 0 C504 14 506 25 507 34 C508 25 509 14 509 0 Z"/>
    <path d="M520 0 C520 39 523 70 524 94 C525 70 528 39 528 0 Z"/>
    <path d="M536 0 C536 17 538 30 539 40 C540 30 541 17 541 0 Z"/>
    <path d="M554 0 C554 28 557 49 558 66 C559 49 562 28 562 0 Z"/>
    <path d="M574 0 C574 13 576 22 577 30 C578 22 580 13 580 0 Z"/>
    <path d="M592 0 C592 34 595 61 596 82 C597 61 600 34 600 0 Z"/>
    <path d="M612 0 C612 18 614 33 615 44 C616 33 618 18 618 0 Z"/>
    <path d="M632 0 C632 23 635 40 636 54 C637 40 640 23 640 0 Z"/>
    <path d="M652 0 C652 12 654 21 655 28 C656 21 658 12 658 0 Z"/>
    <path d="M672 0 C672 37 675 65 676 88 C677 65 681 37 681 0 Z"/>
    <path d="M694 0 C694 17 696 30 697 40 C698 30 700 17 700 0 Z"/>
    <path d="M712 0 C712 13 715 24 716 32 C717 24 719 13 719 0 Z"/>

    <path d="M824 0 C824 18 826 33 827 44 C828 33 831 18 831 0 Z"/>
    <path d="M838 0 C838 36 841 64 842 86 C843 64 846 36 846 0 Z"/>
    <path d="M852 0 C852 12 854 21 855 28 C856 21 857 12 857 0 Z"/>
    <path d="M868 0 C868 24 871 43 872 58 C873 43 876 24 876 0 Z"/>
    <path d="M884 0 C884 15 886 27 887 36 C888 27 889 15 889 0 Z"/>
    <path d="M900 0 C900 30 903 53 904 72 C905 53 908 30 908 0 Z"/>
    <path d="M916 0 C916 13 918 22 919 30 C920 22 921 13 921 0 Z"/>
    <path d="M934 0 C934 39 937 68 938 92 C939 68 942 39 942 0 Z"/>
    <path d="M956 0 C956 19 958 34 959 46 C960 34 962 19 962 0 Z"/>
    <path d="M974 0 C974 14 977 25 978 34 C979 25 981 14 981 0 Z"/>
    <path d="M994 0 C994 27 997 47 998 64 C999 47 1002 27 1002 0 Z"/>
    <path d="M1014 0 C1014 17 1016 30 1017 40 C1018 30 1020 17 1020 0 Z"/>
    <path d="M1034 0 C1034 33 1037 58 1038 78 C1039 58 1042 33 1042 0 Z"/>
    <path d="M1056 0 C1056 18 1058 31 1059 42 C1060 31 1062 18 1062 0 Z"/>
    <path d="M1076 0 C1076 24 1079 41 1080 56 C1081 41 1084 24 1084 0 Z"/>
    <path d="M1098 0 C1098 13 1100 22 1101 30 C1102 22 1104 13 1104 0 Z"/>
  </g>

  <!-- ice reflections / light refraction down the larger icicles -->
  <g fill="none" stroke="#FFFFFF" stroke-opacity="0.32" stroke-width="0.8" stroke-linecap="round">
    <path d="M110 5 C110 34 111 58 112 75"/>
    <path d="M178 5 C178 29 179 50 180 66"/>
    <path d="M278 5 C278 32 279 54 280 70"/>
    <path d="M522 5 C522 33 523 56 524 73"/>
    <path d="M594 5 C594 29 595 49 596 64"/>
    <path d="M674 5 C674 31 675 53 676 69"/>
    <path d="M840 5 C840 30 841 52 842 67"/>
    <path d="M936 5 C936 32 937 55 938 72"/>
    <path d="M1036 5 C1036 27 1037 47 1038 61"/>
  </g>
</svg>
